<mxfile host="app.diagrams.net" modified="2023-11-02T02:48:44.068Z" agent="Mozilla/5.0 (Macintosh; Intel Mac OS X 10_15_7) AppleWebKit/537.36 (KHTML, like Gecko) Chrome/118.0.0.0 Safari/537.36" etag="JLwKyBbi1hVKmaSIuDYA" version="22.0.8" type="device">
  <diagram name="Page-1" id="7LtZnpKmAx-y5y-WDQuI">
    <mxGraphModel dx="1808" dy="663" grid="1" gridSize="10" guides="1" tooltips="1" connect="1" arrows="1" fold="1" page="1" pageScale="1" pageWidth="850" pageHeight="1100" math="0" shadow="0">
      <root>
        <mxCell id="0" />
        <mxCell id="1" parent="0" />
        <mxCell id="D-fkSum0nlh9nLF340kY-1" value="&lt;font style=&quot;font-size: 10px;&quot;&gt;DAO, TKN1, TKN2, TKN3&lt;/font&gt;" style="ellipse;whiteSpace=wrap;html=1;fillColor=#ffe6cc;strokeColor=#d79b00;strokeWidth=2;" parent="1" vertex="1">
          <mxGeometry x="-340" y="200" width="120" height="80" as="geometry" />
        </mxCell>
        <mxCell id="D-fkSum0nlh9nLF340kY-3" value="" style="endArrow=none;dashed=1;html=1;rounded=0;strokeWidth=3;" parent="1" edge="1">
          <mxGeometry width="50" height="50" relative="1" as="geometry">
            <mxPoint x="-467.25" y="130" as="sourcePoint" />
            <mxPoint x="-47.25" y="130" as="targetPoint" />
          </mxGeometry>
        </mxCell>
        <mxCell id="D-fkSum0nlh9nLF340kY-5" value="&lt;font style=&quot;font-size: 10px;&quot;&gt;DAO&lt;/font&gt;&lt;font style=&quot;&quot;&gt;&lt;br&gt;&lt;/font&gt;" style="rounded=1;whiteSpace=wrap;html=1;fillColor=#d5e8d4;strokeColor=#82b366;strokeWidth=2;arcSize=50;" parent="1" vertex="1">
          <mxGeometry x="-440" y="70" width="45.5" height="30" as="geometry" />
        </mxCell>
        <mxCell id="D-fkSum0nlh9nLF340kY-6" value="&lt;font style=&quot;&quot;&gt;&lt;span style=&quot;font-size: 10px;&quot;&gt;TKN1&lt;/span&gt;&lt;br&gt;&lt;/font&gt;" style="rounded=1;whiteSpace=wrap;html=1;fillColor=#dae8fc;strokeColor=#6c8ebf;strokeWidth=2;arcSize=50;" parent="1" vertex="1">
          <mxGeometry x="-210" y="140" width="45.5" height="30" as="geometry" />
        </mxCell>
        <mxCell id="D-fkSum0nlh9nLF340kY-7" value="&lt;font style=&quot;&quot;&gt;&lt;font style=&quot;font-size: 10px;&quot;&gt;TKN2&lt;/font&gt;&lt;br&gt;&lt;/font&gt;" style="rounded=1;whiteSpace=wrap;html=1;fillColor=#dae8fc;strokeColor=#6c8ebf;strokeWidth=2;arcSize=50;" parent="1" vertex="1">
          <mxGeometry x="-150" y="170" width="45.5" height="30" as="geometry" />
        </mxCell>
        <mxCell id="D-fkSum0nlh9nLF340kY-8" value="&lt;font style=&quot;&quot;&gt;&lt;font style=&quot;font-size: 10px;&quot;&gt;TKN3&lt;/font&gt;&lt;br&gt;&lt;/font&gt;" style="rounded=1;whiteSpace=wrap;html=1;fillColor=#dae8fc;strokeColor=#6c8ebf;strokeWidth=2;arcSize=50;" parent="1" vertex="1">
          <mxGeometry x="-130" y="225" width="45.5" height="30" as="geometry" />
        </mxCell>
        <mxCell id="D-fkSum0nlh9nLF340kY-10" value="" style="endArrow=classic;html=1;rounded=0;exitX=0.25;exitY=1;exitDx=0;exitDy=0;entryX=1;entryY=0;entryDx=0;entryDy=0;" parent="1" source="D-fkSum0nlh9nLF340kY-6" target="D-fkSum0nlh9nLF340kY-1" edge="1">
          <mxGeometry width="50" height="50" relative="1" as="geometry">
            <mxPoint x="-340" y="440" as="sourcePoint" />
            <mxPoint x="-290" y="390" as="targetPoint" />
          </mxGeometry>
        </mxCell>
        <mxCell id="D-fkSum0nlh9nLF340kY-11" value="" style="endArrow=classic;html=1;rounded=0;exitX=0;exitY=0.5;exitDx=0;exitDy=0;entryX=0.963;entryY=0.3;entryDx=0;entryDy=0;entryPerimeter=0;" parent="1" source="D-fkSum0nlh9nLF340kY-7" target="D-fkSum0nlh9nLF340kY-1" edge="1">
          <mxGeometry width="50" height="50" relative="1" as="geometry">
            <mxPoint x="-60" y="330" as="sourcePoint" />
            <mxPoint x="-10" y="280" as="targetPoint" />
          </mxGeometry>
        </mxCell>
        <mxCell id="D-fkSum0nlh9nLF340kY-12" value="" style="endArrow=classic;html=1;rounded=0;exitX=0;exitY=0.5;exitDx=0;exitDy=0;entryX=1;entryY=0.5;entryDx=0;entryDy=0;" parent="1" source="D-fkSum0nlh9nLF340kY-8" target="D-fkSum0nlh9nLF340kY-1" edge="1">
          <mxGeometry width="50" height="50" relative="1" as="geometry">
            <mxPoint x="-110" y="370" as="sourcePoint" />
            <mxPoint x="-60" y="320" as="targetPoint" />
          </mxGeometry>
        </mxCell>
        <mxCell id="D-fkSum0nlh9nLF340kY-13" value="&lt;h1&gt;&lt;span style=&quot;font-size: 14px;&quot;&gt;Balancer Pool&lt;/span&gt;&lt;/h1&gt;&lt;p&gt;Balancer pool serves as naive ETF of native tokens&lt;/p&gt;" style="text;html=1;strokeColor=none;fillColor=none;spacing=5;spacingTop=-20;whiteSpace=wrap;overflow=hidden;rounded=0;" parent="1" vertex="1">
          <mxGeometry x="-630" y="185" width="190" height="110" as="geometry" />
        </mxCell>
        <mxCell id="D-fkSum0nlh9nLF340kY-14" value="&lt;h1&gt;&lt;span style=&quot;font-size: 14px;&quot;&gt;Mint on Demand&lt;/span&gt;&lt;/h1&gt;&lt;p&gt;New DAO treasury token is minted on demand in exchange for taking a position within the balancer pool&lt;/p&gt;" style="text;html=1;strokeColor=none;fillColor=none;spacing=5;spacingTop=-20;whiteSpace=wrap;overflow=hidden;rounded=0;" parent="1" vertex="1">
          <mxGeometry x="-630" y="20" width="180" height="110" as="geometry" />
        </mxCell>
        <mxCell id="D-fkSum0nlh9nLF340kY-15" value="&lt;h1&gt;&lt;span style=&quot;font-size: 14px;&quot;&gt;Burn to Redeem&lt;/span&gt;&lt;/h1&gt;&lt;p&gt;DAO token is burned in exchange for native tokens within the Balancer Pool&lt;/p&gt;" style="text;html=1;strokeColor=none;fillColor=none;spacing=5;spacingTop=-20;whiteSpace=wrap;overflow=hidden;rounded=0;" parent="1" vertex="1">
          <mxGeometry x="-630" y="320" width="190" height="110" as="geometry" />
        </mxCell>
        <mxCell id="D-fkSum0nlh9nLF340kY-16" value="&lt;font style=&quot;font-size: 10px;&quot;&gt;DAO&lt;/font&gt;&lt;font style=&quot;&quot;&gt;&lt;br&gt;&lt;/font&gt;" style="rounded=1;whiteSpace=wrap;html=1;fillColor=#f8cecc;strokeColor=#b85450;strokeWidth=2;arcSize=50;" parent="1" vertex="1">
          <mxGeometry x="-410" y="360" width="45.5" height="30" as="geometry" />
        </mxCell>
        <mxCell id="D-fkSum0nlh9nLF340kY-17" value="" style="curved=1;endArrow=classic;html=1;rounded=0;exitX=0.5;exitY=1;exitDx=0;exitDy=0;entryX=0;entryY=0.5;entryDx=0;entryDy=0;" parent="1" source="D-fkSum0nlh9nLF340kY-5" target="D-fkSum0nlh9nLF340kY-1" edge="1">
          <mxGeometry width="50" height="50" relative="1" as="geometry">
            <mxPoint x="-340" y="150" as="sourcePoint" />
            <mxPoint x="-340" y="240" as="targetPoint" />
            <Array as="points">
              <mxPoint x="-420" y="210" />
            </Array>
          </mxGeometry>
        </mxCell>
        <mxCell id="D-fkSum0nlh9nLF340kY-19" value="" style="curved=1;endArrow=classic;html=1;rounded=0;exitX=0.5;exitY=1;exitDx=0;exitDy=0;entryX=1;entryY=0.5;entryDx=0;entryDy=0;" parent="1" source="D-fkSum0nlh9nLF340kY-1" target="D-fkSum0nlh9nLF340kY-16" edge="1">
          <mxGeometry width="50" height="50" relative="1" as="geometry">
            <mxPoint x="-310" y="310" as="sourcePoint" />
            <mxPoint x="-340" y="410" as="targetPoint" />
            <Array as="points">
              <mxPoint x="-280" y="350" />
            </Array>
          </mxGeometry>
        </mxCell>
        <mxCell id="D-fkSum0nlh9nLF340kY-20" value="" style="endArrow=none;dashed=1;html=1;rounded=0;strokeWidth=3;" parent="1" edge="1">
          <mxGeometry width="50" height="50" relative="1" as="geometry">
            <mxPoint x="-470" y="320" as="sourcePoint" />
            <mxPoint x="-50" y="320" as="targetPoint" />
          </mxGeometry>
        </mxCell>
      </root>
    </mxGraphModel>
  </diagram>
</mxfile>
